<svg width="65" height="93" viewBox="0 0 65 93" fill="none" xmlns="http://www.w3.org/2000/svg">
<path d="M63.1197 79.085C63.3044 78.9141 63.4709 78.7244 63.6164 78.5191C63.8985 78.1448 64.0497 77.688 64.0466 77.2193C63.9958 76.6516 63.7408 76.1215 63.3289 75.7275C63.1341 75.4983 62.9392 75.269 62.7518 75.0579C62.3818 74.6168 62.0126 74.1879 61.6509 73.7772C60.9142 72.9443 60.2103 72.1403 59.5402 71.3775C58.1827 69.8716 56.9484 68.5438 55.8843 67.4469C53.7569 65.2653 52.3248 64.0435 52.0667 64.2712C51.8086 64.499 52.7591 66.1369 54.5344 68.6267C55.422 69.8717 56.5161 71.3327 57.7491 72.9273C58.3837 73.7173 59.0406 74.5616 59.736 75.4282C60.0698 75.8531 60.4143 76.2835 60.7694 76.7195C60.4176 76.6622 60.063 76.6232 59.7071 76.6026C58.2554 76.4119 55.8408 76.2963 51.9566 75.8113C46.4263 75.1443 40.9841 73.8829 35.7242 72.0491C31.899 70.6883 28.2283 68.9271 24.7732 66.7949C22.8723 65.6152 21.0508 64.3123 19.3202 62.8946C17.5269 61.3924 15.834 59.7744 14.2523 58.051C12.664 56.2753 11.2076 54.386 9.89478 52.398C8.57088 50.3783 7.41754 48.2517 6.44671 46.0405C4.51272 41.6645 3.37927 36.9771 3.10022 32.2009C2.98367 29.9212 3.0421 27.636 3.275 25.3653C3.5158 23.2236 3.91674 21.103 4.47444 19.0213C5.39433 15.4401 6.77765 11.9943 8.58937 8.77113C9.85505 6.58992 11.2898 4.5113 12.8804 2.55437C13.5532 1.89604 14.1426 1.15756 14.6354 0.355502C13.8208 0.841983 13.0825 1.44619 12.4445 2.14853C10.613 3.98661 8.9777 6.01014 7.56486 8.18651C5.48534 11.4325 3.86696 14.9517 2.75615 18.6432C2.09032 20.8055 1.59147 23.0158 1.26396 25.2544C0.933384 27.6431 0.795977 30.0545 0.85308 32.4652C1.00558 37.5333 2.07763 42.5315 4.01701 47.2163C4.99143 49.5774 6.16282 51.8523 7.5188 54.017C8.86536 56.1502 10.3726 58.1778 12.0273 60.0819C15.2011 63.7141 18.886 66.8656 22.9665 69.4376C26.5686 71.696 30.4072 73.5531 34.4137 74.9758C39.889 76.9111 45.5899 78.1365 51.3768 78.6221C54.0603 78.869 56.7593 78.9005 59.4479 78.7164L59.7436 78.6847C56.6613 81.4432 53.8011 84.4405 51.1897 87.6485C48.8919 90.4659 47.7278 92.4029 47.9902 92.6215C48.5166 93.0835 54.4496 86.4557 62.7041 79.4657L63.1197 79.085Z" fill="#072333"/>
</svg>
