<svg width="1728" height="1280" viewBox="0 0 1728 1280" fill="none" xmlns="http://www.w3.org/2000/svg">
<mask id="mask0_168_113" style="mask-type:alpha" maskUnits="userSpaceOnUse" x="-1" y="-66" width="2198" height="1347">
<path d="M2197 -2.00006L-0.0026272 1280L-0.00137777 -66L2197 -2.00006Z" fill="#1676BC"/>
</mask>
<g mask="url(#mask0_168_113)">
<rect x="-80" y="-93" width="2147" height="1397" fill="#30BBFF"/>
<rect x="944.999" y="132.457" width="922" height="704.141" rx="150" fill="url(#paint0_linear_168_113)" fill-opacity="0.56"/>
<path d="M-436 844C-436 761.157 -368.843 694 -286 694H336C418.843 694 486 761.157 486 844V1248.14C486 1330.98 418.843 1398.14 336 1398.14H-286C-368.843 1398.14 -436 1330.98 -436 1248.14V844Z" fill="url(#paint1_linear_168_113)" fill-opacity="0.56"/>
<rect width="1232.85" height="287.878" rx="143.939" transform="matrix(-0.999727 -0.0233706 0.0236274 -0.999721 1839.51 106.61)" fill="url(#paint2_linear_168_113)" fill-opacity="0.56"/>
</g>
<defs>
<linearGradient id="paint0_linear_168_113" x1="1185" y1="208.042" x2="1181.04" y2="452.702" gradientUnits="userSpaceOnUse">
<stop stop-color="#6938FD"/>
<stop offset="1" stop-color="#9978FE"/>
</linearGradient>
<linearGradient id="paint1_linear_168_113" x1="-255.996" y1="669.586" x2="-259.952" y2="914.245" gradientUnits="userSpaceOnUse">
<stop stop-color="#B8E8FF"/>
<stop offset="1" stop-color="#30BBFF"/>
</linearGradient>
<linearGradient id="paint2_linear_168_113" x1="815.036" y1="5.13392" x2="419.766" y2="240.972" gradientUnits="userSpaceOnUse">
<stop stop-color="#B8E8FF"/>
<stop offset="1" stop-color="#30BBFF"/>
</linearGradient>
</defs>
</svg>
